<?xml version="1.0" ?><!DOCTYPE svg  PUBLIC '-//W3C//DTD SVG 1.1//EN'  'http://www.w3.org/Graphics/SVG/1.1/DTD/svg11.dtd'><svg enable-background="new 0 0 128 128" id="Слой_1" version="1.1" viewBox="0 0 128 128" xml:space="preserve" xmlns="http://www.w3.org/2000/svg" xmlns:xlink="http://www.w3.org/1999/xlink"><g><g><g><path d="M39,60.1l-7-2.6c-1-0.4-1.5-1.4-1.1-2.4l17.9-49c0.4-1,1.4-1.5,2.4-1.1l7,2.6c1,0.4,1.5,1.4,1.1,2.4     L41.4,59C41,60,40,60.5,39,60.1z" fill="#938993"/></g><path d="M32,57.6l7,2.6c1,0.4,2-0.1,2.4-1.1l7.3-20.1H36.8l-5.9,16.3C30.5,56.1,31,57.2,32,57.6z" fill="#593055" opacity="0.2"/><g><path d="M39.6,61.5c-0.4,0-0.7-0.1-1.1-0.2l-7-2.6c-1.6-0.6-2.4-2.4-1.9-4l17.9-49c0.4-1.2,1.6-2,2.9-2     c0.4,0,0.7,0.1,1.1,0.2l7,2.6c0.8,0.3,1.4,0.9,1.8,1.6c0.4,0.8,0.4,1.6,0.1,2.4l-17.9,49C42.1,60.6,40.9,61.5,39.6,61.5z      M50.5,6.2c-0.2,0-0.5,0.1-0.6,0.4l-17.9,49c-0.1,0.3,0,0.7,0.4,0.8l7,2.6c0.3,0.1,0.7,0,0.8-0.4l17.9-49c0.1-0.2,0-0.4,0-0.5     s-0.1-0.2-0.3-0.3l-7-2.6C50.7,6.2,50.6,6.2,50.5,6.2z" fill="#62355C"/></g><g><path d="M96,57.6l-7,2.6c-1,0.4-2-0.1-2.4-1.1L68.7,10c-0.4-1,0.1-2,1.1-2.4l7-2.6c1-0.4,2,0.1,2.4,1.1l17.9,49     C97.5,56.1,97,57.2,96,57.6z" fill="#938993"/></g><path d="M89,60.1l7-2.6c1-0.4,1.5-1.4,1.1-2.4l-6-16.3H79.3L86.6,59C87,60,88,60.5,89,60.1z" fill="#593055" opacity="0.2"/><g><path d="M88.4,61.5c-1.3,0-2.5-0.8-2.9-2l-17.9-49c-0.6-1.6,0.2-3.4,1.9-4l7-2.6c0.3-0.1,0.7-0.2,1.1-0.2     c1.3,0,2.5,0.8,2.9,2l17.9,49c0.6,1.6-0.2,3.4-1.9,4l-7,2.6C89.1,61.4,88.7,61.5,88.4,61.5z M77.4,6.2c-0.1,0-0.1,0-0.2,0l-7,2.6     c-0.3,0.1-0.5,0.5-0.4,0.8l17.9,49c0.1,0.4,0.5,0.5,0.8,0.4l7-2.6c0.3-0.1,0.5-0.5,0.4-0.8L78,6.6C77.9,6.3,77.6,6.2,77.4,6.2z" fill="#62355C"/></g><g><path d="M120.8,49H7.2C5.4,49,4,50.4,4,52.2v9.5c0,1.7,1.4,3.2,3.2,3.2h4.8l7,51.3c0.5,4,3.9,6.9,7.8,6.9h74.5     c4,0,7.3-3,7.8-6.9l7-51.3h4.8c1.7,0,3.2-1.4,3.2-3.2v-9.5C124,50.4,122.6,49,120.8,49z M43.5,108.1c0,1.7-1.4,3.2-3.2,3.2     c-1.7,0-3.2-1.4-3.2-3.2v-30c0-1.7,1.4-3.2,3.2-3.2c1.7,0,3.2,1.4,3.2,3.2V108.1z M67.2,108.1c0,1.7-1.4,3.2-3.2,3.2     c-1.7,0-3.2-1.4-3.2-3.2v-30c0-1.7,1.4-3.2,3.2-3.2c1.7,0,3.2,1.4,3.2,3.2V108.1z M90.8,108.1c0,1.7-1.4,3.2-3.2,3.2     s-3.2-1.4-3.2-3.2v-30c0-1.7,1.4-3.2,3.2-3.2s3.2,1.4,3.2,3.2V108.1z" fill="#65C5B4"/></g><path d="M120.8,49h-7.9c1.7,0,3.2,1.4,3.2,3.2v9.5c0,1.7-1.4,3.2-3.2,3.2h-1.8h-2.9H11.9l1.1,7.9    h94.2l-6,43.4c-0.5,4-0.7,6.9-4.7,6.9h4.7c4,0,7.3-3,7.8-6.9l7-51.3h4.8c1.7,0,3.2-1.4,3.2-3.2v-9.5C124,50.4,122.6,49,120.8,49z" fill="#593055" opacity="0.2"/><g><circle cx="35.5" cy="57.9" fill="#4D4F51" r="3.2"/></g><g><path d="M95.5,57.1c0.6,2.4-1.5,4.4-3.8,3.8c-1.1-0.3-2-1.2-2.3-2.3c-0.6-2.4,1.5-4.4,3.8-3.8     C94.4,55.1,95.3,56,95.5,57.1z" fill="#4D4F51"/></g><g><path d="M35.5,62.3c-2.4,0-4.4-2-4.4-4.4s2-4.4,4.4-4.4s4.4,2,4.4,4.4S37.9,62.3,35.5,62.3z M35.5,56     c-1.1,0-1.9,0.9-1.9,1.9c0,1.1,0.9,1.9,1.9,1.9c1.1,0,1.9-0.9,1.9-1.9C37.4,56.8,36.6,56,35.5,56z" fill="#62355C"/></g><g><path d="M92.5,62.3c-0.4,0-0.7,0-1.1-0.1c-1.6-0.4-2.8-1.6-3.2-3.2c-0.3-1.3,0-2.7,0.8-3.8c1.1-1.4,2.8-2,4.5-1.6     c1.6,0.4,2.8,1.6,3.2,3.2c0.3,1.3,0,2.7-0.8,3.8C95.1,61.7,93.8,62.3,92.5,62.3z M92.5,56c-0.6,0-1.1,0.3-1.5,0.7     c-0.4,0.5-0.5,1.1-0.3,1.7c0.2,0.7,0.7,1.2,1.4,1.4c0.8,0.2,1.5-0.1,2-0.7c0.4-0.5,0.5-1.1,0.3-1.7c-0.2-0.7-0.7-1.2-1.4-1.4     C92.8,56,92.6,56,92.5,56z" fill="#62355C"/></g></g><g><path d="M87.7,112.5c2.4,0,4.4-2,4.4-4.4v-30c0-2.4-2-4.4-4.4-4.4s-4.4,2-4.4,4.4v30    C83.3,110.5,85.3,112.5,87.7,112.5z M85.8,78.1c0-1.1,0.9-1.9,1.9-1.9c1.1,0,1.9,0.9,1.9,1.9v30c0,1.1-0.9,1.9-1.9,1.9    c-1.1,0-1.9-0.9-1.9-1.9V78.1z" fill="#62355C"/><path d="M64,112.5c2.4,0,4.4-2,4.4-4.4v-30c0-2.4-2-4.4-4.4-4.4s-4.4,2-4.4,4.4v30C59.6,110.5,61.6,112.5,64,112.5    z M62.1,78.1c0-1.1,0.9-1.9,1.9-1.9s1.9,0.9,1.9,1.9v30c0,1.1-0.9,1.9-1.9,1.9s-1.9-0.9-1.9-1.9V78.1z" fill="#62355C"/><path d="M40.3,112.5c2.4,0,4.4-2,4.4-4.4v-30c0-2.4-2-4.4-4.4-4.4s-4.4,2-4.4,4.4v30    C35.9,110.5,37.9,112.5,40.3,112.5z M38.4,78.1c0-1.1,0.9-1.9,1.9-1.9c1.1,0,1.9,0.9,1.9,1.9v30c0,1.1-0.9,1.9-1.9,1.9    c-1.1,0-1.9-0.9-1.9-1.9V78.1z" fill="#62355C"/><path d="M120.8,47.8H7.2c-2.4,0-4.4,2-4.4,4.4v9.5c0,2.4,2,4.4,4.4,4.4h3.4h0.3l6.9,50.2c0.6,4.6,4.5,8,9.1,8h74.5    c4.6,0,8.5-3.4,9.1-8l6.9-50.2h0.3h3.4c2.4,0,4.4-2,4.4-4.4v-9.5C125.2,49.7,123.3,47.8,120.8,47.8z M107.8,116    c-0.4,3.3-3.2,5.8-6.6,5.8H26.8c-3.3,0-6.2-2.5-6.6-5.8l-6.8-49.9h101.3L107.8,116z M122.8,61.7c0,1.1-0.9,1.9-1.9,1.9h-3.4h-1.4    H11.9h-1.4H7.2c-1.1,0-1.9-0.9-1.9-1.9v-9.5c0-1.1,0.9-1.9,1.9-1.9h113.7c1.1,0,1.9,0.9,1.9,1.9V61.7z" fill="#62355C"/></g></g></svg>